<?xml version="1.0" encoding="UTF-8" standalone="no"?>
<svg
   id="Layer_1"
   data-name="Layer 1"
   viewBox="0 00 392.75 64.24"
   version="1.1"
   sodipodi:docname="Film.svg"
   inkscape:version="1.2.2 (b0a84865, 2022-12-01)"
   xmlns:inkscape="http://www.inkscape.org/namespaces/inkscape"
   xmlns:sodipodi="http://sodipodi.sourceforge.net/DTD/sodipodi-0.dtd"
   xmlns="http://www.w3.org/2000/svg"
   xmlns:svg="http://www.w3.org/2000/svg">
  <sodipodi:namedview
     id="namedview583"
     pagecolor="#ffffff"
     bordercolor="#000000"
     borderopacity="0.25"
     inkscape:showpageshadow="2"
     inkscape:pageopacity="0.0"
     inkscape:pagecheckerboard="0"
     inkscape:deskcolor="#d1d1d1"
     showgrid="false"
     inkscape:zoom="3.0782941"
     inkscape:cx="200.92297"
     inkscape:cy="36.221361"
     inkscape:window-width="1486"
     inkscape:window-height="681"
     inkscape:window-x="0"
     inkscape:window-y="38"
     inkscape:window-maximized="0"
     inkscape:current-layer="Layer_1" />
  <defs
     id="defs553">
    <style
       id="style551">.cls-1{isolation:isolate;}.cls-2{fill:#952b85;}</style>
  </defs>
  <title
     id="title555">Film</title>
  <g
     id="Film"
     transform="scale(1,0.92149909)">
    <g
       class="cls-1"
       id="g561">
      <path
         class="cls-2"
         d="m 11.21,59.63 h 28 v 6.62 h -28 z"
         transform="translate(-11.21,-27.32)"
         id="path557" />
      <path
         class="cls-2"
         d="m 53.6,59.63 h 28 v 6.62 h -28 z"
         transform="translate(-11.21,-27.32)"
         id="path559" />
    </g>
    <g
       class="cls-1"
       id="g571">
      <path
         class="cls-2"
         d="m 95.09,27.32 h 49.11 v 14.53 h -30.83 v 12.84 h 28.85 V 69.12 H 113.37 V 97.67 H 95.09 Z"
         transform="translate(-11.21,-27.32)"
         id="path563" />
      <path
         class="cls-2"
         d="m 152.79,27.32 h 18.58 v 70.35 h -18.58 z"
         transform="translate(-11.21,-27.32)"
         id="path565" />
      <path
         class="cls-2"
         d="m 184,27.32 h 18.58 v 55.33 h 29.74 v 15 H 184 Z"
         transform="translate(-11.21,-27.32)"
         id="path567" />
      <path
         class="cls-2"
         d="m 312.45,27.32 v 70.35 h -16.2 l -0.1,-32.21 -13.34,32.21 H 271.05 L 257.62,65.86 V 97.67 H 241.51 V 27.32 H 256 l 21,48 20.95,-48 z"
         transform="translate(-11.21,-27.32)"
         id="path569" />
    </g>
    <g
       class="cls-1"
       id="g575">
      <path
         class="cls-2"
         d="m 326.27,59.63 h 28 v 6.62 h -28 z"
         transform="translate(-11.21,-27.32)"
         id="path573" />
    </g>
    <g
       class="cls-1"
       id="g579">
      <path
         class="cls-2"
         d="m 368.65,59.63 h 28 v 6.62 h -28 z"
         transform="translate(-11.21,-27.32)"
         id="path577" />
    </g>
  </g>
</svg>


