<?xml version="1.0" encoding="UTF-8" standalone="no"?>
<svg
   id="Layer_1"
   data-name="Layer 1"
   viewBox="0 00 392.75 64.24"
   version="1.1"
   sodipodi:docname="Games.svg"
   inkscape:version="1.2.2 (b0a84865, 2022-12-01)"
   xmlns:inkscape="http://www.inkscape.org/namespaces/inkscape"
   xmlns:sodipodi="http://sodipodi.sourceforge.net/DTD/sodipodi-0.dtd"
   xmlns="http://www.w3.org/2000/svg"
   xmlns:svg="http://www.w3.org/2000/svg"
   xmlns:rdf="http://www.w3.org/1999/02/22-rdf-syntax-ns#"
   xmlns:cc="http://creativecommons.org/ns#"
   xmlns:dc="http://purl.org/dc/elements/1.1/">
  <sodipodi:namedview
     id="namedview583"
     pagecolor="#ffffff"
     bordercolor="#000000"
     borderopacity="0.25"
     inkscape:showpageshadow="2"
     inkscape:pageopacity="0.0"
     inkscape:pagecheckerboard="0"
     inkscape:deskcolor="#d1d1d1"
     showgrid="false"
     inkscape:zoom="1.5102622"
     inkscape:cx="55.950549"
     inkscape:cy="53.964139"
     inkscape:window-width="1486"
     inkscape:window-height="681"
     inkscape:window-x="0"
     inkscape:window-y="38"
     inkscape:window-maximized="0"
     inkscape:current-layer="Layer_1" />
  <defs
     id="defs553">
    <style
       id="style551">.cls-1{isolation:isolate;}.cls-2{fill:#952b85;}</style>
  </defs>
  <title
     id="title555">Film</title>
  <g
     id="Film"
     transform="matrix(0.93516625,0,0,0.92149909,15.400517,0)">
    <g
       class="cls-1"
       id="g561"
       style="display:inline">
      <path
         class="cls-2"
         d="m 11.21,59.63 h 28 v 6.62 h -28 z"
         transform="translate(-11.21,-27.32)"
         id="path557" />
    </g>
    <g
       class="cls-1"
       id="g579"
       style="display:inline">
      <path
         class="cls-2"
         d="m 368.65,59.63 h 28 v 6.62 h -28 z"
         transform="translate(-11.21,-27.32)"
         id="path577" />
    </g>
  </g>
  <g
     aria-label="GAMES"
     id="text605"
     style="font-weight:900;font-size:80px;font-family:'Muli Black';-inkscape-font-specification:'Muli Black, Heavy';fill:#952b85">
    <path
       d="m 104.08344,28.912788 v 28.56 q -4.560001,2.08 -10.240001,3.2 -5.6,1.12 -11.52,1.12 -9.28,0 -16.16,-3.52 -6.8,-3.52 -10.48,-10.08 -3.68,-6.64 -3.68,-15.68 0,-8.8 3.68,-15.36 3.68,-6.64 10.4,-10.1599998 6.72,-3.6 15.68,-3.6 6.16,0 11.6,1.6 5.52,1.6 8.960001,4.4 L 97.603439,20.032788 q -3.92,-2.56 -7.6,-3.68 -3.6,-1.2 -7.76,-1.2 -7.6,0 -11.36,4.32 -3.68,4.24 -3.68,13.04 0,9.12 3.84,13.52 3.92,4.4 12,4.4 3.76,0 7.52,-0.8 v -10.56 h -9.92 v -10.16 z"
       id="path315" />
    <path
       d="m 157.04339,61.072788 -5.04,-11.76 h -25.28 l -5.04,11.76 h -15.04 l 26.64,-56.9599998 h 11.84 l 26.72,56.9599998 z m -25.44,-23.04 h 15.52 l -7.76,-18 z"
       id="path317" />
    <path
       d="m 221.12332,4.1127882 h 11.68 V 61.072788 h -13.12 l -0.08,-26.08 -10.8,26.08 h -9.52 l -10.88,-25.76 v 25.76 h -13.04 V 4.1127882 h 11.76 l 17.04,38.8799998 z"
       id="path319" />
    <path
       d="M 243.28327,61.072788 V 4.1127882 h 40.64 V 15.632788 h -26 v 10.72 h 24.32 v 11.52 h -24.32 v 11.68 h 26 v 11.52 z"
       id="path321" />
    <path
       d="m 311.4431,61.792788 q -6.4,0 -12.64,-1.68 -6.24,-1.68 -10.16,-4.56 l 4.72,-10.64 q 4.16,2.64 8.8,4.08 4.72,1.36 9.44,1.36 4.8,0 7.36,-1.28 2.56,-1.36 2.56,-3.76 0,-2.16 -2.32,-3.52 -2.32,-1.44 -8.72,-2.8 -8.08,-1.6 -12.56,-3.92 -4.48,-2.4 -6.32,-5.6 -1.76,-3.2 -1.76,-7.76 0,-5.2 2.96,-9.36 2.96,-4.2399998 8.32,-6.5599998 5.36,-2.4 12.24,-2.4 6.16,0 11.92,1.76 5.84,1.68 9.12,4.48 l -4.64,10.6399998 q -3.76,-2.64 -7.92,-4 -4.16,-1.44 -8.32,-1.44 -4.08,0 -6.56,1.6 -2.48,1.52 -2.48,4.16 0,1.44 0.88,2.4 0.88,0.96 3.28,1.92 2.4,0.88 7.2,1.92 7.76,1.68 12.16,4.08 4.48,2.32 6.32,5.52 1.84,3.12 1.84,7.52 0,8.32 -6.48,13.12 -6.48,4.72 -18.24,4.72 z"
       id="path323" />
  </g>
  <metadata
     id="metadata743">
    <rdf:RDF>
      <cc:Work
         rdf:about="">
        <dc:title>Film</dc:title>
      </cc:Work>
    </rdf:RDF>
  </metadata>
</svg>


