<?xml version="1.0" encoding="UTF-8" standalone="no"?>
<svg
   id="Layer_1"
   data-name="Layer 1"
   viewBox="0 0 396.94 64.82"
   version="1.1"
   xmlns="http://www.w3.org/2000/svg"
   xmlns:svg="http://www.w3.org/2000/svg"
   xmlns:rdf="http://www.w3.org/1999/02/22-rdf-syntax-ns#"
   xmlns:cc="http://creativecommons.org/ns#"
   xmlns:dc="http://purl.org/dc/elements/1.1/">
  <defs
     id="defs858">
    <style
       id="style856">.cls-1{isolation:isolate;}.cls-2{fill:#952b85;}</style>
  </defs>
  <title
     id="title860">Commercials</title>
  <g
     id="Commercials"
     transform="matrix(1,0,0,1.1438221,-0.58621248,11.727913)"
     style="display:none">
    <g
       class="cls-1"
       id="g864">
      <path
         class="cls-2"
         d="M 11.58,95.32 A 18.18,18.18 0 0 1 4.79,87.43 27.55,27.55 0 0 1 2.41,75.64 a 27.2,27.2 0 0 1 2.38,-11.7 18.33,18.33 0 0 1 6.79,-7.86 19,19 0 0 1 10.36,-2.79 20.87,20.87 0 0 1 7.25,1.29 14.86,14.86 0 0 1 5.64,3.5 l -3,8.17 a 14.92,14.92 0 0 0 -9.63,-3.87 8.22,8.22 0 0 0 -7.06,3.34 q -2.46,3.36 -2.46,9.92 0,6.56 2.46,10 a 8.21,8.21 0 0 0 7.01,3.36 14.92,14.92 0 0 0 9.63,-3.87 l 3,8.16 a 14.74,14.74 0 0 1 -5.64,3.5 20.87,20.87 0 0 1 -7.25,1.29 19,19 0 0 1 -10.31,-2.76 z"
         transform="translate(-2.41,-53.29)"
         id="path862" />
    </g>
    <g
       class="cls-1"
       id="g874">
      <path
         class="cls-2"
         d="M 47.2,95.38 A 17.68,17.68 0 0 1 40.53,87.55 28.44,28.44 0 0 1 38.21,75.64 27.75,27.75 0 0 1 40.56,63.79 17.91,17.91 0 0 1 47.22,56 18.53,18.53 0 0 1 57.36,53.27 18.53,18.53 0 0 1 67.5,56 a 17.56,17.56 0 0 1 6.61,7.77 28.37,28.37 0 0 1 2.3,11.85 28.76,28.76 0 0 1 -2.3,11.91 17.5,17.5 0 0 1 -6.61,7.83 18.53,18.53 0 0 1 -10.14,2.73 18.62,18.62 0 0 1 -10.16,-2.71 z m 16.88,-9.55 q 2.43,-3.49 2.43,-10.19 0,-6.7 -2.43,-10.1 a 8.23,8.23 0 0 0 -13.41,0 q -2.4,3.43 -2.4,10.13 0,6.7 2.4,10.22 a 8.19,8.19 0 0 0 13.41,0 z"
         transform="translate(-2.41,-53.29)"
         id="path866" />
      <path
         class="cls-2"
         d="m 120.87,53.84 v 43.72 h -8.77 l -0.06,-20 -7.22,20 H 98.45 L 91.18,77.79 V 97.56 H 82.46 V 53.84 h 7.86 l 11.4,29.84 11.34,-29.84 z"
         transform="translate(-2.41,-53.29)"
         id="path868" />
      <path
         class="cls-2"
         d="m 166.46,53.84 v 43.72 h -8.77 l -0.06,-20 -7.22,20 H 144 L 136.72,77.79 V 97.56 H 128 V 53.84 h 7.87 l 11.43,29.84 11.35,-29.84 z"
         transform="translate(-2.41,-53.29)"
         id="path870" />
      <path
         class="cls-2"
         d="m 173.47,53.84 h 27.18 v 8.85 h -17.39 v 8.22 h 16.27 v 8.84 h -16.27 v 9 h 17.39 v 8.84 h -27.18 z"
         transform="translate(-2.41,-53.29)"
         id="path872" />
    </g>
    <g
       class="cls-1"
       id="g878">
      <path
         class="cls-2"
         d="M 238.92,97.56 H 228.28 L 223.35,83 q -0.85,-2.46 -4,-2.46 h -3.65 v 17 h -9.9 v -43.7 h 17.71 q 6.9,0 10.38,3.41 3.48,3.41 3.48,9.75 a 13.93,13.93 0 0 1 -2.06,7.65 11.16,11.16 0 0 1 -5.8,4.57 5.71,5.71 0 0 1 2.88,1.72 9.46,9.46 0 0 1 2,3.62 z M 226.56,70.82 a 4.2,4.2 0 0 0 1.44,-3.53 4.31,4.31 0 0 0 -1.42,-3.62 q -1.43,-1.11 -4.68,-1.11 h -6.32 V 72 h 6.32 a 7.53,7.53 0 0 0 4.66,-1.18 z"
         transform="translate(-2.41,-53.29)"
         id="path876" />
    </g>
    <g
       class="cls-1"
       id="g886">
      <path
         class="cls-2"
         d="m 251.9,95.32 a 18.14,18.14 0 0 1 -6.8,-7.89 27.55,27.55 0 0 1 -2.38,-11.79 27.2,27.2 0 0 1 2.38,-11.7 18.29,18.29 0 0 1 6.8,-7.86 19,19 0 0 1 10.35,-2.79 20.83,20.83 0 0 1 7.25,1.29 14.86,14.86 0 0 1 5.64,3.5 l -3.05,8.17 a 14.92,14.92 0 0 0 -9.63,-3.87 8.22,8.22 0 0 0 -7.06,3.34 q -2.46,3.36 -2.46,9.92 0,6.56 2.46,10 a 8.21,8.21 0 0 0 7.06,3.36 14.92,14.92 0 0 0 9.63,-3.87 l 3.05,8.16 a 14.74,14.74 0 0 1 -5.64,3.5 20.83,20.83 0 0 1 -7.25,1.29 19,19 0 0 1 -10.35,-2.76 z"
         transform="translate(-2.41,-53.29)"
         id="path880" />
      <path
         class="cls-2"
         d="m 280.39,53.84 h 10.06 v 43.72 h -10.06 z"
         transform="translate(-2.41,-53.29)"
         id="path882" />
      <path
         class="cls-2"
         d="m 323,88.54 h -16.93 l -3.37,9 h -10.06 l 17.82,-43.72 h 7.92 l 17.87,43.72 h -9.9 z m -3.27,-8.66 -5.19,-13.82 -5.19,13.82 z"
         transform="translate(-2.41,-53.29)"
         id="path884" />
    </g>
    <g
       class="cls-1"
       id="g890">
      <path
         class="cls-2"
         d="m 338.45,53.84 h 10.05 v 34.39 h 16.11 v 9.33 h -26.16 z"
         transform="translate(-2.41,-53.29)"
         id="path888" />
    </g>
    <g
       class="cls-1"
       id="g894">
      <path
         class="cls-2"
         d="m 374.36,96.82 a 19.19,19.19 0 0 1 -6.8,-3.5 l 3.16,-8.16 a 22.3,22.3 0 0 0 5.91,3.1 19.16,19.16 0 0 0 6.29,1.07 9.71,9.71 0 0 0 4.92,-1 3.17,3.17 0 0 0 1.71,-2.86 3.21,3.21 0 0 0 -1.55,-2.74 19.58,19.58 0 0 0 -5.83,-2.12 29,29 0 0 1 -8.4,-3 10.51,10.51 0 0 1 -4.2,-4.27 13.77,13.77 0 0 1 6.34,-18.21 17.88,17.88 0 0 1 8.19,-1.81 24.72,24.72 0 0 1 8,1.32 15.88,15.88 0 0 1 6.07,3.47 l -3.11,8.17 a 19.6,19.6 0 0 0 -5.29,-3.1 15.31,15.31 0 0 0 -5.57,-1.08 7.28,7.28 0 0 0 -4.38,1.2 3.76,3.76 0 0 0 -1.66,3.22 2.8,2.8 0 0 0 0.59,1.84 5.68,5.68 0 0 0 2.19,1.45 32,32 0 0 0 4.81,1.5 29.79,29.79 0 0 1 8.16,3.1 10.93,10.93 0 0 1 4.21,4.24 12.7,12.7 0 0 1 1.23,5.8 12.42,12.42 0 0 1 -4.34,10 q -4.33,3.66 -12.2,3.65 a 28.46,28.46 0 0 1 -8.45,-1.28 z"
         transform="translate(-2.41,-53.29)"
         id="path892" />
    </g>
  </g>
  <metadata
     id="metadata1036">
    <rdf:RDF>
      <cc:Work
         rdf:about="">
        <dc:title>Commercials</dc:title>
      </cc:Work>
    </rdf:RDF>
  </metadata>
  <g
     id="layer1"
     style="display:inline"
     transform="translate(0.58621248,2.9310624)">
    <text
       xml:space="preserve"
       style="font-weight:900;font-size:65.0303px;font-family:'Muli Black';-inkscape-font-specification:'Muli Black, Heavy';fill:#952b85;stroke-width:0.812879"
       x="1.9598134"
       y="57.707977"
       id="text522"
       transform="scale(0.99214046,1.0079218)"><tspan
         id="tspan520"
         x="1.9598134"
         y="57.707977"
         style="stroke-width:0.812879">TELEVISION</tspan></text>
  </g>
</svg>
