<?xml version="1.0" encoding="UTF-8" standalone="no"?>
<svg
   id="Layer_1"
   data-name="Layer 1"
   viewBox="0 0 396.94 64.82"
   version="1.1"
   xmlns="http://www.w3.org/2000/svg"
   xmlns:svg="http://www.w3.org/2000/svg"
   xmlns:rdf="http://www.w3.org/1999/02/22-rdf-syntax-ns#"
   xmlns:cc="http://creativecommons.org/ns#"
   xmlns:dc="http://purl.org/dc/elements/1.1/">
  <defs
     id="defs858">
    <style
       id="style856">.cls-1{isolation:isolate;}.cls-2{fill:#952b85;}</style>
  </defs>
  <title
     id="title860">Commercials</title>
  <metadata
     id="metadata1036">
    <rdf:RDF>
      <cc:Work
         rdf:about="">
        <dc:title>Commercials</dc:title>
      </cc:Work>
    </rdf:RDF>
  </metadata>
  <g
     id="layer1"
     style="display:inline"
     transform="translate(0.58621248,2.9310624)">
    <g
       aria-label="TELEVISION"
       transform="scale(0.99214046,1.0079218)"
       id="text522"
       style="font-weight:900;font-size:65.0303px;font-family:'Muli Black';-inkscape-font-specification:'Muli Black, Heavy';fill:#952b85;stroke-width:0.812879">
      <path
         d="M 16.5266,57.707977 V 21.291011 H 2.7401769 V 11.406406 H 42.668779 v 9.884605 H 28.882356 v 36.416966 z"
         id="path567" />
      <path
         d="M 47.610987,57.707977 V 11.406406 h 33.035391 v 9.364363 H 59.511531 v 8.71406 h 19.769211 v 9.364362 H 59.511531 v 9.494424 h 21.134847 v 9.364362 z"
         id="path569" />
      <path
         d="M 86.889163,57.707977 V 11.406406 h 12.225695 v 36.416966 h 19.574122 v 9.884605 z"
         id="path571" />
      <path
         d="M 124.54161,57.707977 V 11.406406 H 157.577 v 9.364363 h -21.13484 v 8.71406 h 19.76921 v 9.364362 h -19.76921 v 9.494424 H 157.577 v 9.364362 z"
         id="path573" />
      <path
         d="m 198.28577,11.406406 h 12.29073 l -21.06982,46.301571 h -9.68951 L 158.74735,11.406406 h 12.68091 l 13.33121,31.084482 z"
         id="path575" />
      <path
         d="M 213.24271,57.707977 V 11.406406 h 12.22569 v 46.301571 z"
         id="path577" />
      <path
         d="m 250.5701,58.29325 q -5.20242,0 -10.27479,-1.365636 -5.07236,-1.365636 -8.25884,-3.706727 l 3.83678,-8.64903 q 3.38158,2.146 7.15334,3.316546 3.83678,1.105515 7.67357,1.105515 3.90182,0 5.98279,-1.040485 2.08097,-1.105515 2.08097,-3.056424 0,-1.755818 -1.88588,-2.861333 -1.88588,-1.170545 -7.0883,-2.27606 -6.56806,-1.300606 -10.20976,-3.186485 -3.6417,-1.950909 -5.13739,-4.552121 -1.43067,-2.601212 -1.43067,-6.307938 0,-4.22697 2.40612,-7.608545 2.40612,-3.446606 6.76315,-5.332484 4.35703,-1.950909 9.94964,-1.950909 5.00733,0 9.68951,1.430666 4.74721,1.365636 7.41346,3.641697 l -3.77176,8.649029 q -3.05643,-2.146 -6.438,-3.251515 -3.38158,-1.170545 -6.76315,-1.170545 -3.31655,0 -5.33249,1.300606 -2.01593,1.235576 -2.01593,3.381575 0,1.170546 0.71533,1.950909 0.71533,0.780364 2.66624,1.560727 1.95091,0.715334 5.85273,1.560727 6.30794,1.365637 9.8846,3.316546 3.6417,1.885878 5.1374,4.48709 1.49569,2.536182 1.49569,6.112848 0,6.763151 -5.26745,10.664968 -5.26746,3.836788 -14.82691,3.836788 z"
         id="path579" />
      <path
         d="M 277.49257,57.707977 V 11.406406 h 12.2257 v 46.301571 z"
         id="path581" />
      <path
         d="m 320.08743,58.29325 q -7.0883,0 -12.35575,-2.861333 -5.26746,-2.926363 -8.12879,-8.323878 -2.7963,-5.397515 -2.7963,-12.615877 0,-7.218363 2.86133,-12.550848 2.86133,-5.332484 8.06376,-8.193817 5.26745,-2.926363 12.35575,-2.926363 7.08831,0 12.29073,2.926363 5.26745,2.861333 8.06376,8.193817 2.7963,5.332485 2.7963,12.550848 0,7.218362 -2.7963,12.615877 -2.79631,5.397515 -8.06376,8.323878 -5.20242,2.861333 -12.29073,2.861333 z m 0,-9.299332 q 5.20243,0 8.12879,-3.706727 2.99139,-3.706727 2.99139,-10.795029 0,-7.023272 -2.99139,-10.664969 -2.92636,-3.706727 -8.12879,-3.706727 -5.20242,0 -8.12878,3.641697 -2.92637,3.641696 -2.92637,10.729999 0,7.153332 2.92637,10.860059 2.92636,3.641697 8.12878,3.641697 z"
         id="path583" />
      <path
         d="m 380.30537,11.406406 h 11.51036 v 46.301571 h -9.03921 L 361.77174,31.435738 v 26.272239 h -11.3803 V 11.406406 h 8.90915 l 21.00478,26.142179 z"
         id="path585" />
    </g>
  </g>
</svg>
