<?xml version="1.0" encoding="UTF-8" standalone="no"?>
<!DOCTYPE svg PUBLIC "-//W3C//DTD SVG 1.1//EN" "http://www.w3.org/Graphics/SVG/1.1/DTD/svg11.dtd">
<svg width="100%" height="100%" viewBox="0 0 171 171" version="1.1" xmlns="http://www.w3.org/2000/svg" xmlns:xlink="http://www.w3.org/1999/xlink" xml:space="preserve" xmlns:serif="http://www.serif.com/" style="fill-rule:evenodd;clip-rule:evenodd;stroke-linejoin:round;stroke-miterlimit:2;">
    <g id="g17">
        <rect id="path45" x="0" y="-0" width="170.667" height="170.667" style="fill:#952b85;fill-rule:nonzero;"/>
        <g id="text49">
            <path id="path184" d="M39.062,14.087L48.988,14.087L48.988,54.013L41.193,54.013L23.081,31.358L23.081,54.013L13.267,54.013L13.267,14.087L20.95,14.087L39.062,36.629L39.062,14.087Z" style="fill:#fff;fill-rule:nonzero;"/>
            <rect id="path186" x="56.222" y="14.087" width="10.542" height="39.926" style="fill:#fff;fill-rule:nonzero;"/>
            <path id="path188" d="M93.344,54.518C89.195,54.518 85.568,53.677 82.466,51.994C79.4,50.275 77.026,47.863 75.344,44.76C73.699,41.658 72.876,38.069 72.876,33.994C72.876,29.956 73.699,26.405 75.344,23.339C77.026,20.236 79.4,17.844 82.466,16.161C85.568,14.442 89.195,13.582 93.344,13.582C95.961,13.582 98.485,13.975 100.915,14.76C103.382,15.545 105.363,16.61 106.859,17.956L103.662,25.414C100.41,23.059 97.045,21.881 93.569,21.881C90.354,21.881 87.886,22.909 86.167,24.965C84.447,26.984 83.587,29.994 83.587,33.994C83.587,38.031 84.447,41.078 86.167,43.134C87.886,45.19 90.354,46.218 93.569,46.218C97.045,46.218 100.41,45.041 103.662,42.686L106.859,50.144C105.363,51.49 103.382,52.555 100.915,53.34C98.485,54.125 95.961,54.518 93.344,54.518Z" style="fill:#fff;fill-rule:nonzero;"/>
            <path id="path190" d="M130.859,54.518C126.71,54.518 123.084,53.677 119.981,51.994C116.915,50.275 114.541,47.863 112.859,44.76C111.214,41.658 110.392,38.069 110.392,33.994C110.392,29.956 111.214,26.405 112.859,23.339C114.541,20.236 116.915,17.844 119.981,16.161C123.084,14.442 126.71,13.582 130.859,13.582C133.476,13.582 136,13.975 138.43,14.76C140.897,15.545 142.879,16.61 144.374,17.956L141.178,25.414C137.925,23.059 134.561,21.881 131.084,21.881C127.869,21.881 125.401,22.909 123.682,24.965C121.962,26.984 121.102,29.994 121.102,33.994C121.102,38.031 121.962,41.078 123.682,43.134C125.401,45.19 127.869,46.218 131.084,46.218C134.561,46.218 137.925,45.041 141.178,42.686L144.374,50.144C142.879,51.49 140.897,52.555 138.43,53.34C136,54.125 133.476,54.518 130.859,54.518Z" style="fill:#fff;fill-rule:nonzero;"/>
            <rect id="path192" x="149.869" y="14.087" width="10.542" height="39.926" style="fill:#fff;fill-rule:nonzero;"/>
        </g>
        <g id="text55">
            <path id="path195" d="M17.182,89.352L17.182,70.594L10.08,70.594L10.08,65.502L30.648,65.502L30.648,70.594L23.546,70.594L23.546,89.352L17.182,89.352Z" style="fill:#fff;fill-rule:nonzero;"/>
            <path id="path197" d="M43.243,89.654C40.809,89.654 38.687,89.162 36.878,88.18C35.069,87.175 33.674,85.746 32.691,83.892C31.731,82.039 31.251,79.872 31.251,77.394C31.251,74.915 31.742,72.76 32.725,70.929C33.707,69.097 35.092,67.691 36.878,66.708C38.687,65.703 40.809,65.201 43.243,65.201C45.677,65.201 47.787,65.703 49.574,66.708C51.383,67.691 52.767,69.097 53.728,70.929C54.688,72.76 55.168,74.915 55.168,77.394C55.168,79.872 54.688,82.039 53.728,83.892C52.767,85.746 51.383,87.175 49.574,88.18C47.787,89.162 45.677,89.654 43.243,89.654ZM43.243,84.864C45.029,84.864 46.425,84.227 47.43,82.954C48.457,81.681 48.971,79.828 48.971,77.394C48.971,74.982 48.457,73.151 47.43,71.9C46.425,70.627 45.029,69.991 43.243,69.991C41.456,69.991 40.061,70.616 39.056,71.867C38.051,73.117 37.548,74.96 37.548,77.394C37.548,79.85 38.051,81.715 39.056,82.988C40.061,84.238 41.456,84.864 43.243,84.864Z" style="fill:#fff;fill-rule:nonzero;"/>
            <path id="path199" d="M58.853,65.502L70.208,65.502C72.933,65.502 75.043,66.161 76.539,67.478C78.036,68.774 78.784,70.538 78.784,72.771C78.784,74.982 78.024,76.746 76.506,78.064C74.987,79.381 72.888,80.04 70.208,80.04L65.15,80.04L65.15,89.352L58.853,89.352L58.853,65.502ZM69.371,75.35C71.738,75.35 72.922,74.513 72.922,72.838C72.922,71.989 72.631,71.353 72.051,70.929C71.492,70.482 70.599,70.259 69.371,70.259L65.15,70.259L65.15,75.35L69.371,75.35Z" style="fill:#fff;fill-rule:nonzero;"/>
            <path id="path201" d="M81.798,65.502L93.154,65.502C95.879,65.502 97.989,66.161 99.485,67.478C100.981,68.774 101.729,70.538 101.729,72.771C101.729,74.982 100.97,76.746 99.452,78.064C97.933,79.381 95.834,80.04 93.154,80.04L88.096,80.04L88.096,89.352L81.798,89.352L81.798,65.502ZM92.317,75.35C94.684,75.35 95.867,74.513 95.867,72.838C95.867,71.989 95.577,71.353 94.996,70.929C94.438,70.482 93.545,70.259 92.317,70.259L88.096,70.259L88.096,75.35L92.317,75.35Z" style="fill:#fff;fill-rule:nonzero;"/>
            <rect id="path203" x="104.744" y="65.502" width="6.298" height="23.85" style="fill:#fff;fill-rule:nonzero;"/>
            <path id="path205" d="M130.738,65.502L136.667,65.502L136.667,89.352L132.011,89.352L121.191,75.819L121.191,89.352L115.329,89.352L115.329,65.502L119.919,65.502L130.738,78.968L130.738,65.502Z" style="fill:#fff;fill-rule:nonzero;"/>
            <path id="path207" d="M162.159,75.886L162.159,87.845C160.886,88.425 159.457,88.872 157.871,89.185C156.308,89.497 154.7,89.654 153.048,89.654C150.457,89.654 148.202,89.162 146.281,88.18C144.383,87.197 142.92,85.79 141.893,83.959C140.866,82.106 140.352,79.917 140.352,77.394C140.352,74.937 140.866,72.793 141.893,70.962C142.92,69.109 144.372,67.691 146.248,66.708C148.123,65.703 150.312,65.201 152.813,65.201C154.533,65.201 156.152,65.424 157.67,65.871C159.211,66.317 160.462,66.931 161.422,67.713L159.446,72.168C158.351,71.453 157.291,70.94 156.263,70.627C155.258,70.292 154.175,70.125 153.014,70.125C150.893,70.125 149.307,70.728 148.257,71.934C147.23,73.117 146.717,74.937 146.717,77.394C146.717,79.939 147.252,81.826 148.324,83.055C149.419,84.283 151.094,84.897 153.349,84.897C154.399,84.897 155.448,84.785 156.498,84.562L156.498,80.14L152.344,80.14L152.344,75.886L162.159,75.886Z" style="fill:#fff;fill-rule:nonzero;"/>
            <path id="path209" d="M23.412,122.984C20.934,122.984 18.767,122.481 16.914,121.476C15.083,120.449 13.665,119.009 12.66,117.155C11.677,115.302 11.186,113.158 11.186,110.724C11.186,108.312 11.677,106.19 12.66,104.359C13.665,102.506 15.083,101.076 16.914,100.071C18.767,99.044 20.934,98.531 23.412,98.531C24.976,98.531 26.483,98.765 27.935,99.234C29.408,99.703 30.592,100.339 31.485,101.143L29.576,105.599C27.633,104.192 25.623,103.488 23.546,103.488C21.626,103.488 20.152,104.102 19.125,105.331C18.097,106.536 17.584,108.334 17.584,110.724C17.584,113.135 18.097,114.955 19.125,116.184C20.152,117.412 21.626,118.026 23.546,118.026C25.623,118.026 27.633,117.323 29.576,115.916L31.485,120.371C30.592,121.175 29.408,121.811 27.935,122.28C26.483,122.749 24.976,122.984 23.412,122.984Z" style="fill:#fff;fill-rule:nonzero;"/>
            <path id="path211" d="M52.689,122.682L50.579,117.758L39.994,117.758L37.883,122.682L31.586,122.682L42.74,98.832L47.698,98.832L58.886,122.682L52.689,122.682ZM42.037,113.035L48.535,113.035L45.286,105.498L42.037,113.035Z" style="fill:#fff;fill-rule:nonzero;"/>
            <path id="path213" d="M68.533,122.984C66.747,122.984 64.983,122.749 63.241,122.28C61.499,121.811 60.081,121.175 58.987,120.371L60.963,115.916C62.124,116.653 63.353,117.222 64.648,117.624C65.965,118.004 67.283,118.194 68.6,118.194C69.94,118.194 70.968,118.015 71.682,117.658C72.397,117.278 72.754,116.753 72.754,116.083C72.754,115.48 72.43,114.989 71.783,114.609C71.135,114.207 69.918,113.817 68.131,113.437C65.876,112.99 64.123,112.443 62.872,111.796C61.622,111.126 60.74,110.344 60.226,109.451C59.735,108.557 59.489,107.474 59.489,106.201C59.489,104.75 59.902,103.444 60.729,102.282C61.555,101.099 62.716,100.183 64.212,99.535C65.708,98.866 67.417,98.531 69.337,98.531C71.057,98.531 72.721,98.776 74.329,99.268C75.959,99.736 77.232,100.362 78.147,101.143L76.204,105.599C75.155,104.862 74.049,104.303 72.888,103.924C71.727,103.522 70.566,103.321 69.404,103.321C68.265,103.321 67.35,103.544 66.658,103.991C65.965,104.415 65.619,104.996 65.619,105.733C65.619,106.134 65.742,106.469 65.988,106.737C66.233,107.005 66.691,107.273 67.361,107.541C68.031,107.787 69.036,108.055 70.376,108.345C72.542,108.814 74.239,109.384 75.467,110.054C76.718,110.701 77.6,111.472 78.114,112.365C78.627,113.236 78.884,114.286 78.884,115.514C78.884,117.836 77.98,119.667 76.171,121.007C74.362,122.325 71.816,122.984 68.533,122.984Z" style="fill:#fff;fill-rule:nonzero;"/>
            <path id="path215" d="M87.259,122.682L87.259,103.924L80.157,103.924L80.157,98.832L100.725,98.832L100.725,103.924L93.623,103.924L93.623,122.682L87.259,122.682Z" style="fill:#fff;fill-rule:nonzero;"/>
            <rect id="path217" x="103.27" y="98.832" width="6.298" height="23.85" style="fill:#fff;fill-rule:nonzero;"/>
            <path id="path219" d="M129.264,98.832L135.193,98.832L135.193,122.682L130.537,122.682L119.718,109.149L119.718,122.682L113.856,122.682L113.856,98.832L118.445,98.832L129.264,112.298L129.264,98.832Z" style="fill:#fff;fill-rule:nonzero;"/>
            <path id="path221" d="M160.685,109.216L160.685,121.175C159.412,121.755 157.983,122.202 156.397,122.515C154.834,122.827 153.226,122.984 151.574,122.984C148.983,122.984 146.728,122.492 144.807,121.51C142.909,120.527 141.446,119.12 140.419,117.289C139.392,115.436 138.878,113.247 138.878,110.724C138.878,108.267 139.392,106.123 140.419,104.292C141.446,102.439 142.898,101.021 144.774,100.038C146.65,99.033 148.838,98.531 151.339,98.531C153.059,98.531 154.678,98.754 156.196,99.201C157.737,99.647 158.988,100.261 159.948,101.043L157.972,105.498C156.877,104.783 155.817,104.27 154.789,103.957C153.784,103.622 152.701,103.455 151.54,103.455C149.419,103.455 147.833,104.058 146.784,105.264C145.756,106.447 145.243,108.267 145.243,110.724C145.243,113.269 145.779,115.156 146.851,116.385C147.945,117.613 149.62,118.227 151.875,118.227C152.925,118.227 153.974,118.115 155.024,117.892L155.024,113.47L150.87,113.47L150.87,109.216L160.685,109.216Z" style="fill:#fff;fill-rule:nonzero;"/>
        </g>
        <g id="text59">
            <path id="path224" d="M22.552,156.699C20.228,156.699 18.198,156.228 16.46,155.286C14.744,154.323 13.415,152.973 12.473,151.235C11.552,149.498 11.091,147.488 11.091,145.207C11.091,142.946 11.552,140.958 12.473,139.241C13.415,137.504 14.744,136.164 16.46,135.222C18.198,134.259 20.228,133.778 22.552,133.778C24.017,133.778 25.43,133.998 26.79,134.437C28.172,134.877 29.281,135.473 30.119,136.227L28.329,140.403C26.508,139.084 24.624,138.425 22.677,138.425C20.877,138.425 19.496,139 18.533,140.152C17.57,141.282 17.088,142.967 17.088,145.207C17.088,147.467 17.57,149.173 18.533,150.325C19.496,151.476 20.877,152.052 22.677,152.052C24.624,152.052 26.508,151.392 28.329,150.074L30.119,154.25C29.281,155.003 28.172,155.6 26.79,156.039C25.43,156.479 24.017,156.699 22.552,156.699Z" style="fill:#fff;fill-rule:nonzero;"/>
            <path id="path226" d="M33.196,134.06L42.333,134.06C44.803,134.06 46.927,134.51 48.706,135.411C50.507,136.29 51.878,137.567 52.82,139.241C53.782,140.916 54.264,142.904 54.264,145.207C54.264,147.53 53.793,149.54 52.851,151.235C51.909,152.91 50.538,154.197 48.738,155.097C46.959,155.976 44.824,156.416 42.333,156.416L33.196,156.416L33.196,134.06ZM41.924,151.706C44.101,151.706 45.724,151.172 46.791,150.105C47.88,149.016 48.424,147.384 48.424,145.207C48.424,140.916 46.257,138.77 41.924,138.77L39.099,138.77L39.099,151.706L41.924,151.706Z" style="fill:#fff;fill-rule:nonzero;"/>
            <path id="path228" d="M74.108,156.416L72.13,151.8L62.208,151.8L60.23,156.416L54.327,156.416L64.782,134.06L69.429,134.06L79.916,156.416L74.108,156.416ZM64.123,147.373L70.214,147.373L67.169,140.309L64.123,147.373Z" style="fill:#fff;fill-rule:nonzero;"/>
            <path id="path230" d="M110.278,156.699C107.955,156.699 105.925,156.228 104.187,155.286C102.471,154.323 101.142,152.973 100.2,151.235C99.279,149.498 98.818,147.488 98.818,145.207C98.818,142.946 99.279,140.958 100.2,139.241C101.142,137.504 102.471,136.164 104.187,135.222C105.925,134.259 107.955,133.778 110.278,133.778C111.744,133.778 113.157,133.998 114.517,134.437C115.899,134.877 117.008,135.473 117.845,136.227L116.056,140.403C114.235,139.084 112.351,138.425 110.404,138.425C108.604,138.425 107.222,139 106.259,140.152C105.297,141.282 104.815,142.967 104.815,145.207C104.815,147.467 105.297,149.173 106.259,150.325C107.222,151.476 108.604,152.052 110.404,152.052C112.351,152.052 114.235,151.392 116.056,150.074L117.845,154.25C117.008,155.003 115.899,155.6 114.517,156.039C113.157,156.479 111.744,156.699 110.278,156.699Z" style="fill:#fff;fill-rule:nonzero;"/>
            <path id="path232" d="M128.521,156.699C126.846,156.699 125.193,156.479 123.56,156.039C121.927,155.6 120.598,155.003 119.572,154.25L121.425,150.074C122.513,150.764 123.665,151.298 124.879,151.675C126.114,152.031 127.349,152.209 128.584,152.209C129.84,152.209 130.802,152.041 131.472,151.706C132.142,151.35 132.477,150.859 132.477,150.231C132.477,149.665 132.174,149.205 131.566,148.849C130.959,148.472 129.819,148.106 128.144,147.75C126.03,147.331 124.387,146.819 123.215,146.212C122.042,145.584 121.216,144.851 120.734,144.014C120.274,143.176 120.043,142.161 120.043,140.968C120.043,139.607 120.431,138.383 121.205,137.294C121.98,136.185 123.068,135.327 124.47,134.72C125.873,134.092 127.474,133.778 129.274,133.778C130.886,133.778 132.446,134.008 133.953,134.469C135.481,134.908 136.674,135.494 137.532,136.227L135.711,140.403C134.727,139.712 133.691,139.189 132.603,138.833C131.514,138.456 130.426,138.268 129.337,138.268C128.27,138.268 127.411,138.477 126.763,138.896C126.114,139.293 125.789,139.838 125.789,140.528C125.789,140.905 125.904,141.219 126.135,141.47C126.365,141.722 126.794,141.973 127.422,142.224C128.05,142.454 128.992,142.705 130.248,142.978C132.278,143.417 133.869,143.951 135.02,144.579C136.192,145.186 137.019,145.908 137.501,146.745C137.982,147.562 138.223,148.545 138.223,149.697C138.223,151.874 137.375,153.59 135.68,154.846C133.984,156.081 131.598,156.699 128.521,156.699Z" style="fill:#fff;fill-rule:nonzero;"/>
            <path id="path234" d="M158.192,156.416L156.214,151.8L146.292,151.8L144.314,156.416L138.411,156.416L148.867,134.06L153.514,134.06L164.001,156.416L158.192,156.416ZM148.208,147.373L154.299,147.373L151.253,140.309L148.208,147.373Z" style="fill:#fff;fill-rule:nonzero;"/>
        </g>
        <g id="text63">
            <path id="path237" d="M95.899,142.159L91.037,145.693L92.906,151.433L88.034,147.889L83.153,151.433L85.022,145.693L80.17,142.159L86.165,142.159L88.034,136.45L89.893,142.159L95.899,142.159Z" style="fill:#fff;fill-rule:nonzero;"/>
        </g>
    </g>
</svg>
