<svg id="Layer_1" data-name="Layer 1" xmlns="http://www.w3.org/2000/svg" viewBox="0 0 392.75 64.24"><defs><style>.cls-1{isolation:isolate;}.cls-2{fill:#952b85;}</style></defs><title>Casting</title><g id="Casting"><g class="cls-1"><path class="cls-2" d="M19.05,95.12A27.48,27.48,0,0,1,7.88,83.81,35.11,35.11,0,0,1,4,66.91,34.66,34.66,0,0,1,7.88,50.15,27.53,27.53,0,0,1,19.05,38.89a34.72,34.72,0,0,1,17-4A38.83,38.83,0,0,1,48,36.73a25,25,0,0,1,9.29,5l-5,11.7a26.63,26.63,0,0,0-15.84-5.54c-5,0-8.92,1.59-11.61,4.79s-4.05,7.94-4.05,14.21S22.12,78,24.82,81.26s6.57,4.84,11.61,4.84a26.64,26.64,0,0,0,15.84-5.55l5,11.71a25.16,25.16,0,0,1-9.29,5,38.53,38.53,0,0,1-11.92,1.85A34.71,34.71,0,0,1,19.05,95.12Z" transform="translate(-3.96 -34.88)"/></g><g class="cls-1"><path class="cls-2" d="M107.45,85.39H79.64L74.1,98.33H57.56l29.3-62.66h13l29.4,62.66H113ZM102.08,73l-8.53-19.8L85,73Z" transform="translate(-3.96 -34.88)"/></g><g class="cls-1"><path class="cls-2" d="M140.71,97.27a33.44,33.44,0,0,1-11.17-5l5.19-11.71A38.84,38.84,0,0,0,144.45,85a35.79,35.79,0,0,0,10.34,1.54,18.21,18.21,0,0,0,8.1-1.45,4.34,4.34,0,0,0,.26-8q-2.55-1.55-9.59-3a52.21,52.21,0,0,1-13.82-4.35,16.29,16.29,0,0,1-6.9-6.12,17.17,17.17,0,0,1-2-8.54,17.54,17.54,0,0,1,3.25-10.34,21.42,21.42,0,0,1,9.15-7.21,33.13,33.13,0,0,1,13.47-2.6,46,46,0,0,1,13.15,1.89,27.11,27.11,0,0,1,10,5l-5.1,11.7A33.66,33.66,0,0,0,166.06,49a28.54,28.54,0,0,0-9.16-1.54,13.43,13.43,0,0,0-7.21,1.71A5.25,5.25,0,0,0,147,53.8a3.73,3.73,0,0,0,1,2.64,9.58,9.58,0,0,0,3.61,2.07,58.3,58.3,0,0,0,7.92,2.16,53.34,53.34,0,0,1,13.42,4.44,16.85,16.85,0,0,1,6.9,6.07,16.26,16.26,0,0,1,2,8.32,16.89,16.89,0,0,1-7.13,14.39q-7.12,5.24-20.06,5.23A53,53,0,0,1,140.71,97.27Z" transform="translate(-3.96 -34.88)"/></g><g class="cls-1"><path class="cls-2" d="M203.81,49.05H185.16V35.67h54V49.05H220.53V98.33H203.81Z" transform="translate(-3.96 -34.88)"/><path class="cls-2" d="M245.87,35.67h16.55V98.33H245.87Z" transform="translate(-3.96 -34.88)"/><path class="cls-2" d="M329.74,35.67V98.33H317.51L289.08,62.78V98.33h-15.4V35.67h12.06l28.42,35.38V35.67Z" transform="translate(-3.96 -34.88)"/><path class="cls-2" d="M396.71,63V94.37a50.71,50.71,0,0,1-11.22,3.52,65.31,65.31,0,0,1-12.72,1.23A38.25,38.25,0,0,1,355,95.25a27.17,27.17,0,0,1-11.58-11.13,34.89,34.89,0,0,1-4-17.21,34.32,34.32,0,0,1,4-16.94A27.64,27.64,0,0,1,354.91,38.8a36.27,36.27,0,0,1,17.24-3.92A45.63,45.63,0,0,1,385,36.64a27.86,27.86,0,0,1,9.81,4.84l-5.19,11.71a34.94,34.94,0,0,0-8.32-4.1,28.13,28.13,0,0,0-8.58-1.27q-8.35,0-12.45,4.71t-4.09,14.38q0,10,4.27,14.88t13.15,4.84a40,40,0,0,0,8.27-.88V74.13H370.92V63Z" transform="translate(-3.96 -34.88)"/></g></g></svg>