<?xml version="1.0" encoding="utf-8"?>
<!-- Generator: Adobe Illustrator 22.0.1, SVG Export Plug-In . SVG Version: 6.00 Build 0)  -->
<svg version="1.1" xmlns="http://www.w3.org/2000/svg" xmlns:xlink="http://www.w3.org/1999/xlink" x="0px" y="0px"
	 viewBox="0 0 401.5 100.3" style="enable-background:new 0 0 401.5 100.3;" xml:space="preserve">
<style type="text/css">
	.st0{display:none;}
	.st1{display:inline;fill:#952B85;}
	.st2{font-family:'Muli-Black';}
	.st3{font-size:88px;}
	.st4{fill:#952B85;}
	.st5{font-size:61.4026px;}
	.st6{letter-spacing:-1.1;}
</style>
<g id="Casting" class="st0">
	<title>Casting</title>
	<text transform="matrix(1 0 0 1 0 98.33)" class="st1 st2 st3">C</text>
	<text transform="matrix(1 0 0 1 59.58 98.33)" class="st1 st2 st3">A</text>
	<text transform="matrix(1 0 0 1 126.28 98.33)" class="st1 st2 st3">S</text>
	<text transform="matrix(1 0 0 1 184.1 98.33)" class="st1 st2 st3">TING</text>
</g>
<g id="Commercials">
	<text transform="matrix(0.8714 0 0 1 0 97.5615)" class="st4 st2 st5 st6">C</text>
	<text transform="matrix(0.8714 0 0 1 35.7988 97.5615)" class="st4 st2 st5">OMME</text>
	<text transform="matrix(0.8714 0 0 1 202.3779 97.5615)" class="st4 st2 st5">R</text>
	<text transform="matrix(0.8714 0 0 1 240.3115 97.5615)" class="st4 st2 st5">CIA</text>
	<text transform="matrix(0.8714 0 0 1 335.0215 97.5615)" class="st4 st2 st5">L</text>
	<text transform="matrix(0.8714 0 0 1 365.583 97.5615)" class="st4 st2 st5">S</text>
</g>
</svg>
