<svg id="Layer_1" data-name="Layer 1" xmlns="http://www.w3.org/2000/svg" viewBox="0 0 396.94 44.82"><defs><style>.cls-1{isolation:isolate;}.cls-2{fill:#952b85;}</style></defs><title>Commercials</title><g id="Commercials"><g class="cls-1"><path class="cls-2" d="M11.58,95.32a18.18,18.18,0,0,1-6.79-7.89A27.55,27.55,0,0,1,2.41,75.64a27.2,27.2,0,0,1,2.38-11.7,18.33,18.33,0,0,1,6.79-7.86,19,19,0,0,1,10.36-2.79,20.87,20.87,0,0,1,7.25,1.29,14.86,14.86,0,0,1,5.64,3.5l-3,8.17a14.92,14.92,0,0,0-9.63-3.87,8.22,8.22,0,0,0-7.06,3.34q-2.46,3.36-2.46,9.92t2.46,10A8.21,8.21,0,0,0,22.15,89a14.92,14.92,0,0,0,9.63-3.87l3,8.16a14.74,14.74,0,0,1-5.64,3.5,20.87,20.87,0,0,1-7.25,1.29A19,19,0,0,1,11.58,95.32Z" transform="translate(-2.41 -53.29)"/></g><g class="cls-1"><path class="cls-2" d="M47.2,95.38a17.68,17.68,0,0,1-6.67-7.83,28.44,28.44,0,0,1-2.32-11.91,27.75,27.75,0,0,1,2.35-11.85A17.91,17.91,0,0,1,47.22,56a18.53,18.53,0,0,1,10.14-2.73A18.53,18.53,0,0,1,67.5,56a17.56,17.56,0,0,1,6.61,7.77,28.37,28.37,0,0,1,2.3,11.85,28.76,28.76,0,0,1-2.3,11.91,17.5,17.5,0,0,1-6.61,7.83,18.53,18.53,0,0,1-10.14,2.73A18.62,18.62,0,0,1,47.2,95.38Zm16.88-9.55q2.43-3.49,2.43-10.19t-2.43-10.1a8.23,8.23,0,0,0-13.41,0q-2.4,3.43-2.4,10.13t2.4,10.22a8.19,8.19,0,0,0,13.41,0Z" transform="translate(-2.41 -53.29)"/><path class="cls-2" d="M120.87,53.84V97.56H112.1l-.06-20-7.22,20H98.45L91.18,77.79V97.56H82.46V53.84h7.86l11.4,29.84,11.34-29.84Z" transform="translate(-2.41 -53.29)"/><path class="cls-2" d="M166.46,53.84V97.56h-8.77l-.06-20-7.22,20H144l-7.28-19.77V97.56H128V53.84h7.87L147.3,83.68l11.35-29.84Z" transform="translate(-2.41 -53.29)"/><path class="cls-2" d="M173.47,53.84h27.18v8.85H183.26v8.22h16.27v8.84H183.26v9h17.39v8.84H173.47Z" transform="translate(-2.41 -53.29)"/></g><g class="cls-1"><path class="cls-2" d="M238.92,97.56H228.28L223.35,83q-.85-2.46-4-2.46H215.7v17h-9.9V53.84h17.71q6.9,0,10.38,3.41T237.37,67a13.93,13.93,0,0,1-2.06,7.65,11.16,11.16,0,0,1-5.8,4.57,5.71,5.71,0,0,1,2.88,1.72,9.46,9.46,0,0,1,2,3.62ZM226.56,70.82A4.2,4.2,0,0,0,228,67.29a4.31,4.31,0,0,0-1.42-3.62q-1.43-1.11-4.68-1.11h-6.32V72h6.32A7.53,7.53,0,0,0,226.56,70.82Z" transform="translate(-2.41 -53.29)"/></g><g class="cls-1"><path class="cls-2" d="M251.9,95.32a18.14,18.14,0,0,1-6.8-7.89,27.55,27.55,0,0,1-2.38-11.79,27.2,27.2,0,0,1,2.38-11.7,18.29,18.29,0,0,1,6.8-7.86,19,19,0,0,1,10.35-2.79,20.83,20.83,0,0,1,7.25,1.29,14.86,14.86,0,0,1,5.64,3.5l-3.05,8.17a14.92,14.92,0,0,0-9.63-3.87,8.22,8.22,0,0,0-7.06,3.34q-2.46,3.36-2.46,9.92t2.46,10A8.21,8.21,0,0,0,262.46,89a14.92,14.92,0,0,0,9.63-3.87l3.05,8.16a14.74,14.74,0,0,1-5.64,3.5,20.83,20.83,0,0,1-7.25,1.29A19,19,0,0,1,251.9,95.32Z" transform="translate(-2.41 -53.29)"/><path class="cls-2" d="M280.39,53.84h10.06V97.56H280.39Z" transform="translate(-2.41 -53.29)"/><path class="cls-2" d="M323,88.54H306.07l-3.37,9H292.64l17.82-43.72h7.92l17.87,43.72h-9.9Zm-3.27-8.66-5.19-13.82-5.19,13.82Z" transform="translate(-2.41 -53.29)"/></g><g class="cls-1"><path class="cls-2" d="M338.45,53.84H348.5V88.23h16.11v9.33H338.45Z" transform="translate(-2.41 -53.29)"/></g><g class="cls-1"><path class="cls-2" d="M374.36,96.82a19.19,19.19,0,0,1-6.8-3.5l3.16-8.16a22.3,22.3,0,0,0,5.91,3.1,19.16,19.16,0,0,0,6.29,1.07,9.71,9.71,0,0,0,4.92-1,3.17,3.17,0,0,0,1.71-2.86A3.21,3.21,0,0,0,388,82.73a19.58,19.58,0,0,0-5.83-2.12,29,29,0,0,1-8.4-3,10.51,10.51,0,0,1-4.2-4.27,13.77,13.77,0,0,1,6.34-18.21,17.88,17.88,0,0,1,8.19-1.81,24.72,24.72,0,0,1,8,1.32,15.88,15.88,0,0,1,6.07,3.47l-3.11,8.17a19.6,19.6,0,0,0-5.29-3.1,15.31,15.31,0,0,0-5.57-1.08,7.28,7.28,0,0,0-4.38,1.2,3.76,3.76,0,0,0-1.66,3.22,2.8,2.8,0,0,0,.59,1.84,5.68,5.68,0,0,0,2.19,1.45,32,32,0,0,0,4.81,1.5,29.79,29.79,0,0,1,8.16,3.1,10.93,10.93,0,0,1,4.21,4.24,12.7,12.7,0,0,1,1.23,5.8,12.42,12.42,0,0,1-4.34,10q-4.33,3.66-12.2,3.65A28.46,28.46,0,0,1,374.36,96.82Z" transform="translate(-2.41 -53.29)"/></g></g></svg>