<svg id="Layer_1" data-name="Layer 1" xmlns="http://www.w3.org/2000/svg" viewBox="0 0 385.4 70.35"><defs><style>.cls-1{isolation:isolate;}.cls-2{fill:#952b85;}</style></defs><title>Film</title><g id="Film"><g class="cls-1"><path class="cls-2" d="M11.21,59.63h28v6.62h-28Z" transform="translate(-11.21 -27.32)"/><path class="cls-2" d="M53.6,59.63h28v6.62h-28Z" transform="translate(-11.21 -27.32)"/></g><g class="cls-1"><path class="cls-2" d="M95.09,27.32H144.2V41.85H113.37V54.69h28.85V69.12H113.37V97.67H95.09Z" transform="translate(-11.21 -27.32)"/><path class="cls-2" d="M152.79,27.32h18.58V97.67H152.79Z" transform="translate(-11.21 -27.32)"/><path class="cls-2" d="M184,27.32h18.58V82.65h29.74v15H184Z" transform="translate(-11.21 -27.32)"/><path class="cls-2" d="M312.45,27.32V97.67h-16.2l-.1-32.21L282.81,97.67H271.05L257.62,65.86V97.67H241.51V27.32H256l21,48,20.95-48Z" transform="translate(-11.21 -27.32)"/></g><g class="cls-1"><path class="cls-2" d="M326.27,59.63h28v6.62h-28Z" transform="translate(-11.21 -27.32)"/></g><g class="cls-1"><path class="cls-2" d="M368.65,59.63h28v6.62h-28Z" transform="translate(-11.21 -27.32)"/></g></g></svg>