<svg id="IsOurThing" xmlns="http://www.w3.org/2000/svg" viewBox="0 0 391.02 40.92"><defs><style>.cls-1{fill:#952b85;}</style></defs><title>IsOurThing</title><path class="cls-1" d="M503.89,462.92h10.54v39.91H503.89Z" transform="translate(-503.89 -462.41)"/><path class="cls-1" d="M527.21,502.16a21.37,21.37,0,0,1-7.12-3.19l3.31-7.46a24.64,24.64,0,0,0,6.2,2.83,22.62,22.62,0,0,0,6.58,1,11.62,11.62,0,0,0,5.16-.92,2.76,2.76,0,0,0,.17-5.1,22.15,22.15,0,0,0-6.11-1.94,33.38,33.38,0,0,1-8.8-2.77,10.36,10.36,0,0,1-4.4-3.9,10.84,10.84,0,0,1-1.27-5.44,11.16,11.16,0,0,1,2.08-6.58,13.54,13.54,0,0,1,5.83-4.6,21.11,21.11,0,0,1,8.58-1.66,29.49,29.49,0,0,1,8.38,1.21,17.18,17.18,0,0,1,6.36,3.17l-3.25,7.45a22.05,22.05,0,0,0-5.55-2.83,18.29,18.29,0,0,0-5.83-1,8.63,8.63,0,0,0-4.6,1.09,3.34,3.34,0,0,0-1.74,3,2.4,2.4,0,0,0,.62,1.68,6.21,6.21,0,0,0,2.3,1.32,37.64,37.64,0,0,0,5,1.37,33.76,33.76,0,0,1,8.55,2.83,10.62,10.62,0,0,1,4.4,3.87,10.35,10.35,0,0,1,1.29,5.3,10.74,10.74,0,0,1-4.54,9.16c-3,2.23-7.29,3.34-12.78,3.34A33.76,33.76,0,0,1,527.21,502.16Z" transform="translate(-503.89 -462.41)"/><path class="cls-1" d="M583.89,500.84a16.93,16.93,0,0,1-7-7.14,23.09,23.09,0,0,1-2.44-10.88A22.51,22.51,0,0,1,576.94,472a17.22,17.22,0,0,1,7-7.09,23.83,23.83,0,0,1,21.25,0,17,17,0,0,1,6.92,7.09,23,23,0,0,1,2.41,10.82,23.33,23.33,0,0,1-2.41,10.88,16.85,16.85,0,0,1-6.92,7.14,23.89,23.89,0,0,1-21.28,0Zm17.69-8.71c1.7-2.13,2.55-5.24,2.55-9.31s-.85-7.11-2.55-9.22a9.4,9.4,0,0,0-14.05,0c-1.68,2.09-2.52,5.18-2.52,9.25s.84,7.22,2.52,9.33a9.35,9.35,0,0,0,14.05,0Z" transform="translate(-503.89 -462.41)"/><path class="cls-1" d="M625,498.94q-4.49-4.41-4.48-12.92v-23.1h10.26v23.49q0,4.32,1.93,6.61a6.79,6.79,0,0,0,5.52,2.3,6.62,6.62,0,0,0,5.44-2.32,10.15,10.15,0,0,0,1.91-6.59V462.92h10.37V486q0,8.4-4.57,12.86t-13.15,4.46Q629.46,503.34,625,498.94Z" transform="translate(-503.89 -462.41)"/><path class="cls-1" d="M697.53,502.83H686.37l-5.16-13.28c-.6-1.5-2-2.24-4.2-2.24H673.2v15.52H662.82V462.92h18.56q7.23,0,10.88,3.11t3.64,8.89a11.17,11.17,0,0,1-8.24,11.15,6.33,6.33,0,0,1,3,1.57,8.62,8.62,0,0,1,2.13,3.31Zm-12.95-24.41a3.63,3.63,0,0,0,1.51-3.22,3.7,3.7,0,0,0-1.49-3.31,9,9,0,0,0-4.9-1h-6.62v8.58h6.62A8.87,8.87,0,0,0,684.58,478.42Z" transform="translate(-503.89 -462.41)"/><path class="cls-1" d="M728.08,471.44H716.19v-8.52h34.43v8.52H738.73v31.39H728.08Z" transform="translate(-503.89 -462.41)"/><path class="cls-1" d="M791.65,462.92v39.91H781.34V486.69H765.19v16.14H754.88V462.92h10.31v15.53h16.15V462.92Z" transform="translate(-503.89 -462.41)"/><path class="cls-1" d="M798.83,462.92h10.54v39.91H798.83Z" transform="translate(-503.89 -462.41)"/><path class="cls-1" d="M852.25,462.92v39.91h-7.79l-18.11-22.64v22.64h-9.81V462.92h7.68l18.11,22.54V462.92Z" transform="translate(-503.89 -462.41)"/><path class="cls-1" d="M894.92,480.3v20a32.4,32.4,0,0,1-7.15,2.24,41,41,0,0,1-8.1.79,24.33,24.33,0,0,1-11.3-2.47,17.33,17.33,0,0,1-7.37-7.09,22.15,22.15,0,0,1-2.58-11A21.78,21.78,0,0,1,861,472a17.61,17.61,0,0,1,7.29-7.12,23.16,23.16,0,0,1,11-2.5,28.89,28.89,0,0,1,8.16,1.13,17.4,17.4,0,0,1,6.25,3.08l-3.3,7.45a22.3,22.3,0,0,0-5.3-2.6,18,18,0,0,0-5.47-.81q-5.33,0-7.93,3t-2.61,9.17q0,6.39,2.72,9.47c1.81,2.06,4.61,3.09,8.38,3.09a25.51,25.51,0,0,0,5.27-.56v-7.4h-7V480.3Z" transform="translate(-503.89 -462.41)"/></svg>